# xmcd
#
# Track frame offsets:
#	150
#	11655
#	28360
#	41262
#	59152
#	70875
#	77027
#	87457
#	99357
#	113192
#	124890
#	133072
#	142315
#	152602
#	162937
#	174880
#
# Disc length: 2534 seconds
#
# Revision: 3
# Processed by: cddbd v1.5.1PL0 Copyright (c) Steve Scherf et al.
# Submitted via: EasyCDDAExtractor 8.2.1.1
#
DISCID=df09e410
DTITLE=яелпоутсийа еуамхиа - покитийг йоуфима
DYEAR=2004
DGENRE=емтевмо
TTITLE0=вакйгдым
TTITLE1=о стахлос
TTITLE2=лпаваяи йамекка йаи жики
TTITLE3=сулпам
TTITLE4=ои жикои тоу паппоу
TTITLE5=ослам лпеи
TTITLE6=г ацояа
TTITLE7=сто патаяи
TTITLE8=ста киламиа амаьаме жытиес
TTITLE9=епистяожг
TTITLE10=аяыла йамеккас
TTITLE11=г памациа г бакоуйкиытисса
TTITLE12=о вояос тгс аисе
TTITLE13=г олпяека тоу боспояоу
TTITLE14=васапийо 64
TTITLE15=лиа кальг сто боспояо
EXTD=
EXTT0=
EXTT1=
EXTT2=
EXTT3=
EXTT4=
EXTT5=
EXTT6=
EXTT7=
EXTT8=
EXTT9=
EXTT10=
EXTT11=
EXTT12=
EXTT13=
EXTT14=
EXTT15=
PLAYORDER=
